<mxfile host="app.diagrams.net" agent="Mozilla/5.0 (Windows NT 10.0; Win64; x64) AppleWebKit/537.36 (KHTML, like Gecko) Chrome/131.0.0.0 Safari/537.36" version="26.0.4">
  <diagram name="Page-1" id="2G7yOfc63kNmIJCsemcx">
    <mxGraphModel dx="3094" dy="412" grid="1" gridSize="10" guides="1" tooltips="1" connect="1" arrows="1" fold="1" page="1" pageScale="1" pageWidth="2300" pageHeight="2300" math="0" shadow="0">
      <root>
        <mxCell id="0" />
        <mxCell id="1" parent="0" />
        <mxCell id="EsFPYt3RrwEHIFZ30FWM-21" style="edgeStyle=orthogonalEdgeStyle;rounded=0;orthogonalLoop=1;jettySize=auto;html=1;entryX=0;entryY=0.75;entryDx=0;entryDy=0;" edge="1" parent="1" source="EsFPYt3RrwEHIFZ30FWM-1" target="EsFPYt3RrwEHIFZ30FWM-5">
          <mxGeometry relative="1" as="geometry" />
        </mxCell>
        <mxCell id="EsFPYt3RrwEHIFZ30FWM-1" value="Browser" style="rounded=1;whiteSpace=wrap;html=1;" vertex="1" parent="1">
          <mxGeometry x="50" y="100" width="120" height="60" as="geometry" />
        </mxCell>
        <mxCell id="EsFPYt3RrwEHIFZ30FWM-2" value="Inventory Db" style="shape=cylinder3;whiteSpace=wrap;html=1;boundedLbl=1;backgroundOutline=1;size=15;" vertex="1" parent="1">
          <mxGeometry x="525" y="40" width="90" height="80" as="geometry" />
        </mxCell>
        <mxCell id="EsFPYt3RrwEHIFZ30FWM-3" value="Reservations DB" style="shape=cylinder3;whiteSpace=wrap;html=1;boundedLbl=1;backgroundOutline=1;size=15;" vertex="1" parent="1">
          <mxGeometry x="520" y="230" width="100" height="80" as="geometry" />
        </mxCell>
        <mxCell id="EsFPYt3RrwEHIFZ30FWM-4" value="payment Db" style="shape=cylinder3;whiteSpace=wrap;html=1;boundedLbl=1;backgroundOutline=1;size=15;" vertex="1" parent="1">
          <mxGeometry x="520" y="420" width="110" height="80" as="geometry" />
        </mxCell>
        <mxCell id="EsFPYt3RrwEHIFZ30FWM-5" value="ListingService" style="rounded=1;whiteSpace=wrap;html=1;" vertex="1" parent="1">
          <mxGeometry x="250" y="40" width="120" height="60" as="geometry" />
        </mxCell>
        <mxCell id="EsFPYt3RrwEHIFZ30FWM-6" value="Booking service" style="rounded=1;whiteSpace=wrap;html=1;" vertex="1" parent="1">
          <mxGeometry x="250" y="260" width="120" height="60" as="geometry" />
        </mxCell>
        <mxCell id="EsFPYt3RrwEHIFZ30FWM-12" style="edgeStyle=orthogonalEdgeStyle;rounded=0;orthogonalLoop=1;jettySize=auto;html=1;entryX=0.5;entryY=1;entryDx=0;entryDy=0;" edge="1" parent="1" source="EsFPYt3RrwEHIFZ30FWM-7" target="EsFPYt3RrwEHIFZ30FWM-6">
          <mxGeometry relative="1" as="geometry" />
        </mxCell>
        <mxCell id="EsFPYt3RrwEHIFZ30FWM-7" value="Payment gateway stripe" style="rounded=1;whiteSpace=wrap;html=1;" vertex="1" parent="1">
          <mxGeometry x="250" y="490" width="120" height="60" as="geometry" />
        </mxCell>
        <mxCell id="EsFPYt3RrwEHIFZ30FWM-9" value="" style="endArrow=classic;html=1;rounded=0;exitX=1;exitY=0.5;exitDx=0;exitDy=0;entryX=0;entryY=0.5;entryDx=0;entryDy=0;" edge="1" parent="1" source="EsFPYt3RrwEHIFZ30FWM-1" target="EsFPYt3RrwEHIFZ30FWM-6">
          <mxGeometry width="50" height="50" relative="1" as="geometry">
            <mxPoint x="380" y="270" as="sourcePoint" />
            <mxPoint x="430" y="220" as="targetPoint" />
          </mxGeometry>
        </mxCell>
        <mxCell id="EsFPYt3RrwEHIFZ30FWM-13" value="3.Get the idempotency key" style="text;html=1;align=center;verticalAlign=middle;resizable=0;points=[];autosize=1;strokeColor=none;fillColor=none;" vertex="1" parent="1">
          <mxGeometry x="150" y="390" width="170" height="30" as="geometry" />
        </mxCell>
        <mxCell id="EsFPYt3RrwEHIFZ30FWM-14" value="" style="endArrow=classic;html=1;rounded=0;exitX=0.622;exitY=1.033;exitDx=0;exitDy=0;exitPerimeter=0;entryX=0.611;entryY=0.044;entryDx=0;entryDy=0;entryPerimeter=0;" edge="1" parent="1" source="EsFPYt3RrwEHIFZ30FWM-6" target="EsFPYt3RrwEHIFZ30FWM-7">
          <mxGeometry width="50" height="50" relative="1" as="geometry">
            <mxPoint x="380" y="380" as="sourcePoint" />
            <mxPoint x="430" y="330" as="targetPoint" />
          </mxGeometry>
        </mxCell>
        <mxCell id="EsFPYt3RrwEHIFZ30FWM-15" value="5.ask to charge user&amp;nbsp;&lt;div&gt;by providing idempotency key&lt;/div&gt;" style="text;html=1;align=center;verticalAlign=middle;resizable=0;points=[];autosize=1;strokeColor=none;fillColor=none;" vertex="1" parent="1">
          <mxGeometry x="320" y="400" width="180" height="40" as="geometry" />
        </mxCell>
        <mxCell id="EsFPYt3RrwEHIFZ30FWM-17" value="" style="endArrow=classic;html=1;rounded=0;entryX=0.085;entryY=0.783;entryDx=0;entryDy=0;entryPerimeter=0;" edge="1" parent="1" target="EsFPYt3RrwEHIFZ30FWM-2">
          <mxGeometry width="50" height="50" relative="1" as="geometry">
            <mxPoint x="380" y="300" as="sourcePoint" />
            <mxPoint x="430" y="250" as="targetPoint" />
          </mxGeometry>
        </mxCell>
        <mxCell id="EsFPYt3RrwEHIFZ30FWM-18" value="" style="endArrow=classic;html=1;rounded=0;entryX=0;entryY=1;entryDx=0;entryDy=-15;entryPerimeter=0;" edge="1" parent="1" target="EsFPYt3RrwEHIFZ30FWM-3">
          <mxGeometry width="50" height="50" relative="1" as="geometry">
            <mxPoint x="380" y="300" as="sourcePoint" />
            <mxPoint x="430" y="250" as="targetPoint" />
          </mxGeometry>
        </mxCell>
        <mxCell id="EsFPYt3RrwEHIFZ30FWM-19" value="2.Deduct the inventory" style="text;html=1;align=center;verticalAlign=middle;resizable=0;points=[];autosize=1;strokeColor=none;fillColor=none;" vertex="1" parent="1">
          <mxGeometry x="330" y="218" width="140" height="30" as="geometry" />
        </mxCell>
        <mxCell id="EsFPYt3RrwEHIFZ30FWM-20" value="4.store the key&amp;nbsp;" style="text;html=1;align=center;verticalAlign=middle;resizable=0;points=[];autosize=1;strokeColor=none;fillColor=none;" vertex="1" parent="1">
          <mxGeometry x="375" y="298" width="110" height="30" as="geometry" />
        </mxCell>
        <mxCell id="EsFPYt3RrwEHIFZ30FWM-22" value="Synchronous communication from browser" style="text;html=1;align=center;verticalAlign=middle;resizable=0;points=[];autosize=1;strokeColor=none;fillColor=none;" vertex="1" parent="1">
          <mxGeometry x="-5" y="28" width="250" height="30" as="geometry" />
        </mxCell>
        <mxCell id="EsFPYt3RrwEHIFZ30FWM-23" value="&lt;span style=&quot;color: rgba(0, 0, 0, 0); font-family: monospace; font-size: 0px; text-align: start;&quot;&gt;%3CmxGraphModel%3E%3Croot%3E%3CmxCell%20id%3D%220%22%2F%3E%3CmxCell%20id%3D%221%22%20parent%3D%220%22%2F%3E%3CmxCell%20id%3D%222%22%20style%3D%22edgeStyle%3DorthogonalEdgeStyle%3Brounded%3D0%3BorthogonalLoop%3D1%3BjettySize%3Dauto%3Bhtml%3D1%3BentryX%3D0%3BentryY%3D0.75%3BentryDx%3D0%3BentryDy%3D0%3B%22%20edge%3D%221%22%20source%3D%223%22%20parent%3D%221%22%3E%3CmxGeometry%20relative%3D%221%22%20as%3D%22geometry%22%3E%3CmxPoint%20x%3D%22250%22%20y%3D%2285%22%20as%3D%22targetPoint%22%2F%3E%3C%2FmxGeometry%3E%3C%2FmxCell%3E%3CmxCell%20id%3D%223%22%20value%3D%22Browser%22%20style%3D%22rounded%3D1%3BwhiteSpace%3Dwrap%3Bhtml%3D1%3B%22%20vertex%3D%221%22%20parent%3D%221%22%3E%3CmxGeometry%20x%3D%2250%22%20y%3D%22100%22%20width%3D%22120%22%20height%3D%2260%22%20as%3D%22geometry%22%2F%3E%3C%2FmxCell%3E%3CmxCell%20id%3D%224%22%20value%3D%22Reservations%20DB%22%20style%3D%22shape%3Dcylinder3%3BwhiteSpace%3Dwrap%3Bhtml%3D1%3BboundedLbl%3D1%3BbackgroundOutline%3D1%3Bsize%3D15%3B%22%20vertex%3D%221%22%20parent%3D%221%22%3E%3CmxGeometry%20x%3D%22520%22%20y%3D%22230%22%20width%3D%22100%22%20height%3D%2280%22%20as%3D%22geometry%22%2F%3E%3C%2FmxCell%3E%3CmxCell%20id%3D%225%22%20value%3D%22payment%20Db%22%20style%3D%22shape%3Dcylinder3%3BwhiteSpace%3Dwrap%3Bhtml%3D1%3BboundedLbl%3D1%3BbackgroundOutline%3D1%3Bsize%3D15%3B%22%20vertex%3D%221%22%20parent%3D%221%22%3E%3CmxGeometry%20x%3D%22520%22%20y%3D%22420%22%20width%3D%22110%22%20height%3D%2280%22%20as%3D%22geometry%22%2F%3E%3C%2FmxCell%3E%3CmxCell%20id%3D%226%22%20value%3D%22Booking%20service%22%20style%3D%22rounded%3D1%3BwhiteSpace%3Dwrap%3Bhtml%3D1%3B%22%20vertex%3D%221%22%20parent%3D%221%22%3E%3CmxGeometry%20x%3D%22250%22%20y%3D%22260%22%20width%3D%22120%22%20height%3D%2260%22%20as%3D%22geometry%22%2F%3E%3C%2FmxCell%3E%3CmxCell%20id%3D%227%22%20style%3D%22edgeStyle%3DorthogonalEdgeStyle%3Brounded%3D0%3BorthogonalLoop%3D1%3BjettySize%3Dauto%3Bhtml%3D1%3BentryX%3D0.5%3BentryY%3D1%3BentryDx%3D0%3BentryDy%3D0%3B%22%20edge%3D%221%22%20source%3D%228%22%20target%3D%226%22%20parent%3D%221%22%3E%3CmxGeometry%20relative%3D%221%22%20as%3D%22geometry%22%2F%3E%3C%2FmxCell%3E%3CmxCell%20id%3D%228%22%20value%3D%22Payment%20gateway%20stripe%22%20style%3D%22rounded%3D1%3BwhiteSpace%3Dwrap%3Bhtml%3D1%3B%22%20vertex%3D%221%22%20parent%3D%221%22%3E%3CmxGeometry%20x%3D%22250%22%20y%3D%22490%22%20width%3D%22120%22%20height%3D%2260%22%20as%3D%22geometry%22%2F%3E%3C%2FmxCell%3E%3CmxCell%20id%3D%229%22%20value%3D%22%22%20style%3D%22endArrow%3Dclassic%3Bhtml%3D1%3Brounded%3D0%3BexitX%3D1%3BexitY%3D0.5%3BexitDx%3D0%3BexitDy%3D0%3BentryX%3D0%3BentryY%3D0.5%3BentryDx%3D0%3BentryDy%3D0%3B%22%20edge%3D%221%22%20source%3D%223%22%20target%3D%226%22%20parent%3D%221%22%3E%3CmxGeometry%20width%3D%2250%22%20height%3D%2250%22%20relative%3D%221%22%20as%3D%22geometry%22%3E%3CmxPoint%20x%3D%22380%22%20y%3D%22270%22%20as%3D%22sourcePoint%22%2F%3E%3CmxPoint%20x%3D%22430%22%20y%3D%22220%22%20as%3D%22targetPoint%22%2F%3E%3C%2FmxGeometry%3E%3C%2FmxCell%3E%3CmxCell%20id%3D%2210%22%20value%3D%223.Get%20the%20idempotency%20key%22%20style%3D%22text%3Bhtml%3D1%3Balign%3Dcenter%3BverticalAlign%3Dmiddle%3Bresizable%3D0%3Bpoints%3D%5B%5D%3Bautosize%3D1%3BstrokeColor%3Dnone%3BfillColor%3Dnone%3B%22%20vertex%3D%221%22%20parent%3D%221%22%3E%3CmxGeometry%20x%3D%22150%22%20y%3D%22390%22%20width%3D%22170%22%20height%3D%2230%22%20as%3D%22geometry%22%2F%3E%3C%2FmxCell%3E%3CmxCell%20id%3D%2211%22%20value%3D%22%22%20style%3D%22endArrow%3Dclassic%3Bhtml%3D1%3Brounded%3D0%3BexitX%3D0.622%3BexitY%3D1.033%3BexitDx%3D0%3BexitDy%3D0%3BexitPerimeter%3D0%3BentryX%3D0.611%3BentryY%3D0.044%3BentryDx%3D0%3BentryDy%3D0%3BentryPerimeter%3D0%3B%22%20edge%3D%221%22%20source%3D%226%22%20target%3D%228%22%20parent%3D%221%22%3E%3CmxGeometry%20width%3D%2250%22%20height%3D%2250%22%20relative%3D%221%22%20as%3D%22geometry%22%3E%3CmxPoint%20x%3D%22380%22%20y%3D%22380%22%20as%3D%22sourcePoint%22%2F%3E%3CmxPoint%20x%3D%22430%22%20y%3D%22330%22%20as%3D%22targetPoint%22%2F%3E%3C%2FmxGeometry%3E%3C%2FmxCell%3E%3CmxCell%20id%3D%2212%22%20value%3D%225.ask%20to%20charge%20user%26amp%3Bnbsp%3B%26lt%3Bdiv%26gt%3Bby%20providing%20idempotency%20key%26lt%3B%2Fdiv%26gt%3B%22%20style%3D%22text%3Bhtml%3D1%3Balign%3Dcenter%3BverticalAlign%3Dmiddle%3Bresizable%3D0%3Bpoints%3D%5B%5D%3Bautosize%3D1%3BstrokeColor%3Dnone%3BfillColor%3Dnone%3B%22%20vertex%3D%221%22%20parent%3D%221%22%3E%3CmxGeometry%20x%3D%22320%22%20y%3D%22400%22%20width%3D%22180%22%20height%3D%2240%22%20as%3D%22geometry%22%2F%3E%3C%2FmxCell%3E%3CmxCell%20id%3D%2213%22%20value%3D%22%22%20style%3D%22endArrow%3Dclassic%3Bhtml%3D1%3Brounded%3D0%3BentryX%3D0.085%3BentryY%3D0.783%3BentryDx%3D0%3BentryDy%3D0%3BentryPerimeter%3D0%3B%22%20edge%3D%221%22%20parent%3D%221%22%3E%3CmxGeometry%20width%3D%2250%22%20height%3D%2250%22%20relative%3D%221%22%20as%3D%22geometry%22%3E%3CmxPoint%20x%3D%22380%22%20y%3D%22300%22%20as%3D%22sourcePoint%22%2F%3E%3CmxPoint%20x%3D%22533%22%20y%3D%22103%22%20as%3D%22targetPoint%22%2F%3E%3C%2FmxGeometry%3E%3C%2FmxCell%3E%3CmxCell%20id%3D%2214%22%20value%3D%22%22%20style%3D%22endArrow%3Dclassic%3Bhtml%3D1%3Brounded%3D0%3BentryX%3D0%3BentryY%3D1%3BentryDx%3D0%3BentryDy%3D-15%3BentryPerimeter%3D0%3B%22%20edge%3D%221%22%20target%3D%224%22%20parent%3D%221%22%3E%3CmxGeometry%20width%3D%2250%22%20height%3D%2250%22%20relative%3D%221%22%20as%3D%22geometry%22%3E%3CmxPoint%20x%3D%22380%22%20y%3D%22300%22%20as%3D%22sourcePoint%22%2F%3E%3CmxPoint%20x%3D%22430%22%20y%3D%22250%22%20as%3D%22targetPoint%22%2F%3E%3C%2FmxGeometry%3E%3C%2FmxCell%3E%3CmxCell%20id%3D%2215%22%20value%3D%222.Deduct%20the%20inventory%22%20style%3D%22text%3Bhtml%3D1%3Balign%3Dcenter%3BverticalAlign%3Dmiddle%3Bresizable%3D0%3Bpoints%3D%5B%5D%3Bautosize%3D1%3BstrokeColor%3Dnone%3BfillColor%3Dnone%3B%22%20vertex%3D%221%22%20parent%3D%221%22%3E%3CmxGeometry%20x%3D%22330%22%20y%3D%22218%22%20width%3D%22140%22%20height%3D%2230%22%20as%3D%22geometry%22%2F%3E%3C%2FmxCell%3E%3CmxCell%20id%3D%2216%22%20value%3D%224.store%20the%20key%26amp%3Bnbsp%3B%22%20style%3D%22text%3Bhtml%3D1%3Balign%3Dcenter%3BverticalAlign%3Dmiddle%3Bresizable%3D0%3Bpoints%3D%5B%5D%3Bautosize%3D1%3BstrokeColor%3Dnone%3BfillColor%3Dnone%3B%22%20vertex%3D%221%22%20parent%3D%221%22%3E%3CmxGeometry%20x%3D%22375%22%20y%3D%22298%22%20width%3D%22110%22%20height%3D%2230%22%20as%3D%22geometry%22%2F%3E%3C%2FmxCell%3E%3C%2Froot%3E%3C%2FmxGraphModel%3E&lt;/span&gt;" style="text;html=1;align=center;verticalAlign=middle;resizable=0;points=[];autosize=1;strokeColor=none;fillColor=none;" vertex="1" parent="1">
          <mxGeometry x="160" y="668" width="20" height="30" as="geometry" />
        </mxCell>
        <mxCell id="EsFPYt3RrwEHIFZ30FWM-24" style="edgeStyle=orthogonalEdgeStyle;rounded=0;orthogonalLoop=1;jettySize=auto;html=1;entryX=0;entryY=0.75;entryDx=0;entryDy=0;" edge="1" parent="1" source="EsFPYt3RrwEHIFZ30FWM-25">
          <mxGeometry relative="1" as="geometry">
            <mxPoint x="270" y="918" as="targetPoint" />
          </mxGeometry>
        </mxCell>
        <mxCell id="EsFPYt3RrwEHIFZ30FWM-25" value="Browser" style="rounded=1;whiteSpace=wrap;html=1;" vertex="1" parent="1">
          <mxGeometry x="-5" y="910" width="120" height="60" as="geometry" />
        </mxCell>
        <mxCell id="EsFPYt3RrwEHIFZ30FWM-26" value="Reservations DB" style="shape=cylinder3;whiteSpace=wrap;html=1;boundedLbl=1;backgroundOutline=1;size=15;" vertex="1" parent="1">
          <mxGeometry x="540" y="1063" width="100" height="80" as="geometry" />
        </mxCell>
        <mxCell id="EsFPYt3RrwEHIFZ30FWM-27" value="payment Db" style="shape=cylinder3;whiteSpace=wrap;html=1;boundedLbl=1;backgroundOutline=1;size=15;" vertex="1" parent="1">
          <mxGeometry x="540" y="1253" width="110" height="80" as="geometry" />
        </mxCell>
        <mxCell id="EsFPYt3RrwEHIFZ30FWM-28" value="AWS step function orchestrator" style="rounded=1;whiteSpace=wrap;html=1;" vertex="1" parent="1">
          <mxGeometry x="270" y="1110" width="120" height="60" as="geometry" />
        </mxCell>
        <mxCell id="EsFPYt3RrwEHIFZ30FWM-29" style="edgeStyle=orthogonalEdgeStyle;rounded=0;orthogonalLoop=1;jettySize=auto;html=1;entryX=0.5;entryY=1;entryDx=0;entryDy=0;" edge="1" parent="1" source="EsFPYt3RrwEHIFZ30FWM-30" target="EsFPYt3RrwEHIFZ30FWM-28">
          <mxGeometry relative="1" as="geometry" />
        </mxCell>
        <mxCell id="EsFPYt3RrwEHIFZ30FWM-30" value="Payment gateway stripe" style="rounded=1;whiteSpace=wrap;html=1;" vertex="1" parent="1">
          <mxGeometry x="270" y="1323" width="120" height="60" as="geometry" />
        </mxCell>
        <mxCell id="EsFPYt3RrwEHIFZ30FWM-31" value="" style="endArrow=classic;html=1;rounded=0;exitX=1;exitY=0.5;exitDx=0;exitDy=0;entryX=0;entryY=0.5;entryDx=0;entryDy=0;" edge="1" parent="1" source="EsFPYt3RrwEHIFZ30FWM-25" target="EsFPYt3RrwEHIFZ30FWM-28">
          <mxGeometry width="50" height="50" relative="1" as="geometry">
            <mxPoint x="400" y="1103" as="sourcePoint" />
            <mxPoint x="450" y="1053" as="targetPoint" />
          </mxGeometry>
        </mxCell>
        <mxCell id="EsFPYt3RrwEHIFZ30FWM-32" value="3.Get the idempotency key" style="text;html=1;align=center;verticalAlign=middle;resizable=0;points=[];autosize=1;strokeColor=none;fillColor=none;" vertex="1" parent="1">
          <mxGeometry x="170" y="1223" width="170" height="30" as="geometry" />
        </mxCell>
        <mxCell id="EsFPYt3RrwEHIFZ30FWM-33" value="" style="endArrow=classic;html=1;rounded=0;exitX=0.622;exitY=1.033;exitDx=0;exitDy=0;exitPerimeter=0;entryX=0.611;entryY=0.044;entryDx=0;entryDy=0;entryPerimeter=0;" edge="1" parent="1" source="EsFPYt3RrwEHIFZ30FWM-28" target="EsFPYt3RrwEHIFZ30FWM-30">
          <mxGeometry width="50" height="50" relative="1" as="geometry">
            <mxPoint x="400" y="1213" as="sourcePoint" />
            <mxPoint x="450" y="1163" as="targetPoint" />
          </mxGeometry>
        </mxCell>
        <mxCell id="EsFPYt3RrwEHIFZ30FWM-34" value="5.ask to charge user&amp;nbsp;&lt;div&gt;by providing idempotency key&lt;/div&gt;" style="text;html=1;align=center;verticalAlign=middle;resizable=0;points=[];autosize=1;strokeColor=none;fillColor=none;" vertex="1" parent="1">
          <mxGeometry x="340" y="1233" width="180" height="40" as="geometry" />
        </mxCell>
        <mxCell id="EsFPYt3RrwEHIFZ30FWM-35" value="" style="endArrow=classic;html=1;rounded=0;entryX=0.085;entryY=0.783;entryDx=0;entryDy=0;entryPerimeter=0;" edge="1" parent="1" source="EsFPYt3RrwEHIFZ30FWM-39">
          <mxGeometry width="50" height="50" relative="1" as="geometry">
            <mxPoint x="400" y="1133" as="sourcePoint" />
            <mxPoint x="553" y="936" as="targetPoint" />
          </mxGeometry>
        </mxCell>
        <mxCell id="EsFPYt3RrwEHIFZ30FWM-36" value="" style="endArrow=classic;html=1;rounded=0;entryX=0;entryY=1;entryDx=0;entryDy=-15;entryPerimeter=0;" edge="1" parent="1" target="EsFPYt3RrwEHIFZ30FWM-26">
          <mxGeometry width="50" height="50" relative="1" as="geometry">
            <mxPoint x="400" y="1133" as="sourcePoint" />
            <mxPoint x="450" y="1083" as="targetPoint" />
          </mxGeometry>
        </mxCell>
        <mxCell id="EsFPYt3RrwEHIFZ30FWM-37" value="2.Deduct the inventory" style="text;html=1;align=center;verticalAlign=middle;resizable=0;points=[];autosize=1;strokeColor=none;fillColor=none;" vertex="1" parent="1">
          <mxGeometry x="350" y="1051" width="140" height="30" as="geometry" />
        </mxCell>
        <mxCell id="EsFPYt3RrwEHIFZ30FWM-38" value="4.store the key&amp;nbsp;" style="text;html=1;align=center;verticalAlign=middle;resizable=0;points=[];autosize=1;strokeColor=none;fillColor=none;" vertex="1" parent="1">
          <mxGeometry x="395" y="1131" width="110" height="30" as="geometry" />
        </mxCell>
        <mxCell id="EsFPYt3RrwEHIFZ30FWM-40" value="" style="endArrow=classic;html=1;rounded=0;entryX=0.085;entryY=0.783;entryDx=0;entryDy=0;entryPerimeter=0;" edge="1" parent="1" target="EsFPYt3RrwEHIFZ30FWM-39">
          <mxGeometry width="50" height="50" relative="1" as="geometry">
            <mxPoint x="400" y="1133" as="sourcePoint" />
            <mxPoint x="553" y="936" as="targetPoint" />
          </mxGeometry>
        </mxCell>
        <mxCell id="EsFPYt3RrwEHIFZ30FWM-39" value="Inventory" style="shape=cylinder3;whiteSpace=wrap;html=1;boundedLbl=1;backgroundOutline=1;size=15;" vertex="1" parent="1">
          <mxGeometry x="540" y="890" width="130" height="80" as="geometry" />
        </mxCell>
        <mxCell id="EsFPYt3RrwEHIFZ30FWM-41" value="Listing service" style="rounded=1;whiteSpace=wrap;html=1;" vertex="1" parent="1">
          <mxGeometry x="230" y="860" width="120" height="60" as="geometry" />
        </mxCell>
        <mxCell id="EsFPYt3RrwEHIFZ30FWM-42" value="Booking service" style="rounded=1;whiteSpace=wrap;html=1;" vertex="1" parent="1">
          <mxGeometry x="170" y="1010" width="70" height="40" as="geometry" />
        </mxCell>
        <mxCell id="EsFPYt3RrwEHIFZ30FWM-43" value="1. send booking request" style="text;html=1;align=center;verticalAlign=middle;resizable=0;points=[];autosize=1;strokeColor=none;fillColor=none;" vertex="1" parent="1">
          <mxGeometry x="215" y="180" width="150" height="30" as="geometry" />
        </mxCell>
        <mxCell id="EsFPYt3RrwEHIFZ30FWM-44" value="" style="endArrow=classic;html=1;rounded=0;exitX=0;exitY=0.75;exitDx=0;exitDy=0;entryX=0.822;entryY=1.033;entryDx=0;entryDy=0;entryPerimeter=0;" edge="1" parent="1" source="EsFPYt3RrwEHIFZ30FWM-6" target="EsFPYt3RrwEHIFZ30FWM-1">
          <mxGeometry width="50" height="50" relative="1" as="geometry">
            <mxPoint x="360" y="270" as="sourcePoint" />
            <mxPoint x="410" y="220" as="targetPoint" />
          </mxGeometry>
        </mxCell>
        <mxCell id="EsFPYt3RrwEHIFZ30FWM-45" value="6.send response" style="text;html=1;align=center;verticalAlign=middle;resizable=0;points=[];autosize=1;strokeColor=none;fillColor=none;" vertex="1" parent="1">
          <mxGeometry x="35" y="218" width="110" height="30" as="geometry" />
        </mxCell>
        <mxCell id="EsFPYt3RrwEHIFZ30FWM-46" value="1.send booking request" style="text;html=1;align=center;verticalAlign=middle;resizable=0;points=[];autosize=1;strokeColor=none;fillColor=none;" vertex="1" parent="1">
          <mxGeometry x="150" y="970" width="150" height="30" as="geometry" />
        </mxCell>
        <mxCell id="EsFPYt3RrwEHIFZ30FWM-47" value="2.Triggers orchestrator" style="text;html=1;align=center;verticalAlign=middle;resizable=0;points=[];autosize=1;strokeColor=none;fillColor=none;" vertex="1" parent="1">
          <mxGeometry x="220" y="1060" width="140" height="30" as="geometry" />
        </mxCell>
        <mxCell id="EsFPYt3RrwEHIFZ30FWM-48" value="" style="endArrow=classic;html=1;rounded=0;exitX=0;exitY=0.75;exitDx=0;exitDy=0;entryX=1;entryY=1;entryDx=0;entryDy=0;" edge="1" parent="1" source="EsFPYt3RrwEHIFZ30FWM-42" target="EsFPYt3RrwEHIFZ30FWM-25">
          <mxGeometry width="50" height="50" relative="1" as="geometry">
            <mxPoint x="360" y="1090" as="sourcePoint" />
            <mxPoint x="410" y="1040" as="targetPoint" />
          </mxGeometry>
        </mxCell>
        <mxCell id="EsFPYt3RrwEHIFZ30FWM-49" value="" style="endArrow=classic;html=1;rounded=0;exitX=0.939;exitY=1.1;exitDx=0;exitDy=0;exitPerimeter=0;entryX=0.145;entryY=1;entryDx=0;entryDy=-4.35;entryPerimeter=0;" edge="1" parent="1" source="EsFPYt3RrwEHIFZ30FWM-6" target="EsFPYt3RrwEHIFZ30FWM-3">
          <mxGeometry width="50" height="50" relative="1" as="geometry">
            <mxPoint x="360" y="380" as="sourcePoint" />
            <mxPoint x="410" y="330" as="targetPoint" />
          </mxGeometry>
        </mxCell>
        <mxCell id="EsFPYt3RrwEHIFZ30FWM-50" value="6.updates the reservation status" style="text;html=1;align=center;verticalAlign=middle;resizable=0;points=[];autosize=1;strokeColor=none;fillColor=none;" vertex="1" parent="1">
          <mxGeometry x="315" y="328" width="190" height="30" as="geometry" />
        </mxCell>
      </root>
    </mxGraphModel>
  </diagram>
</mxfile>
